<svg width="39" height="17" viewBox="0 0 39 17" fill="none" xmlns="http://www.w3.org/2000/svg">
<path d="M8.36914 10.9434V13H1.92676V10.9434H8.36914ZM2.7793 0.203125V13H0.142578V0.203125H2.7793Z" fill="black"/>
<path d="M9.31836 8.3418V8.15723C9.31836 7.45996 9.41797 6.81836 9.61719 6.23242C9.81641 5.64062 10.1064 5.12793 10.4873 4.69434C10.8682 4.26074 11.3369 3.92383 11.8936 3.68359C12.4502 3.4375 13.0889 3.31445 13.8096 3.31445C14.5303 3.31445 15.1719 3.4375 15.7344 3.68359C16.2969 3.92383 16.7686 4.26074 17.1494 4.69434C17.5361 5.12793 17.8291 5.64062 18.0283 6.23242C18.2275 6.81836 18.3271 7.45996 18.3271 8.15723V8.3418C18.3271 9.0332 18.2275 9.6748 18.0283 10.2666C17.8291 10.8525 17.5361 11.3652 17.1494 11.8047C16.7686 12.2383 16.2998 12.5752 15.7432 12.8154C15.1865 13.0557 14.5479 13.1758 13.8271 13.1758C13.1064 13.1758 12.4648 13.0557 11.9023 12.8154C11.3457 12.5752 10.874 12.2383 10.4873 11.8047C10.1064 11.3652 9.81641 10.8525 9.61719 10.2666C9.41797 9.6748 9.31836 9.0332 9.31836 8.3418ZM11.8496 8.15723V8.3418C11.8496 8.74023 11.8848 9.1123 11.9551 9.45801C12.0254 9.80371 12.1367 10.1084 12.2891 10.3721C12.4473 10.6299 12.6523 10.832 12.9043 10.9785C13.1562 11.125 13.4639 11.1982 13.8271 11.1982C14.1787 11.1982 14.4805 11.125 14.7324 10.9785C14.9844 10.832 15.1865 10.6299 15.3389 10.3721C15.4912 10.1084 15.6025 9.80371 15.6729 9.45801C15.749 9.1123 15.7871 8.74023 15.7871 8.3418V8.15723C15.7871 7.77051 15.749 7.40723 15.6729 7.06738C15.6025 6.72168 15.4883 6.41699 15.3301 6.15332C15.1777 5.88379 14.9756 5.67285 14.7236 5.52051C14.4717 5.36816 14.167 5.29199 13.8096 5.29199C13.4521 5.29199 13.1475 5.36816 12.8955 5.52051C12.6494 5.67285 12.4473 5.88379 12.2891 6.15332C12.1367 6.41699 12.0254 6.72168 11.9551 7.06738C11.8848 7.40723 11.8496 7.77051 11.8496 8.15723Z" fill="black"/>
<path d="M25.9033 3.49023H28.1973V12.6836C28.1973 13.5508 28.0039 14.2861 27.6172 14.8896C27.2363 15.499 26.7031 15.959 26.0176 16.2695C25.332 16.5859 24.5352 16.7441 23.627 16.7441C23.2285 16.7441 22.8066 16.6914 22.3613 16.5859C21.9219 16.4805 21.5 16.3164 21.0957 16.0938C20.6973 15.8711 20.3633 15.5898 20.0938 15.25L21.21 13.7559C21.5029 14.0957 21.8428 14.3594 22.2295 14.5469C22.6162 14.7402 23.0439 14.8369 23.5127 14.8369C23.9697 14.8369 24.3564 14.752 24.6729 14.582C24.9893 14.418 25.2324 14.1748 25.4023 13.8525C25.5723 13.5361 25.6572 13.1523 25.6572 12.7012V5.6875L25.9033 3.49023ZM19.5049 8.35938V8.1748C19.5049 7.44824 19.5928 6.78906 19.7686 6.19727C19.9502 5.59961 20.2051 5.08691 20.5332 4.65918C20.8672 4.23145 21.2715 3.90039 21.7461 3.66602C22.2207 3.43164 22.7568 3.31445 23.3545 3.31445C23.9873 3.31445 24.5176 3.43164 24.9453 3.66602C25.373 3.90039 25.7246 4.23438 26 4.66797C26.2754 5.0957 26.4893 5.60254 26.6416 6.18848C26.7998 6.76855 26.9229 7.4043 27.0107 8.0957V8.5C26.9229 9.16211 26.791 9.77734 26.6152 10.3457C26.4395 10.9141 26.208 11.4121 25.9209 11.8398C25.6338 12.2617 25.2764 12.5898 24.8486 12.8242C24.4268 13.0586 23.9229 13.1758 23.3369 13.1758C22.751 13.1758 22.2207 13.0557 21.7461 12.8154C21.2773 12.5752 20.876 12.2383 20.542 11.8047C20.208 11.3711 19.9502 10.8613 19.7686 10.2754C19.5928 9.68945 19.5049 9.05078 19.5049 8.35938ZM22.0361 8.1748V8.35938C22.0361 8.75195 22.0742 9.11816 22.1504 9.45801C22.2266 9.79785 22.3438 10.0996 22.502 10.3633C22.666 10.6211 22.8682 10.8232 23.1084 10.9697C23.3545 11.1104 23.6445 11.1807 23.9785 11.1807C24.4414 11.1807 24.8193 11.084 25.1123 10.8906C25.4053 10.6914 25.625 10.4189 25.7715 10.0732C25.918 9.72754 26.0029 9.3291 26.0264 8.87793V7.72656C26.0146 7.35742 25.9648 7.02637 25.877 6.7334C25.7891 6.43457 25.666 6.17969 25.5078 5.96875C25.3496 5.75781 25.1445 5.59375 24.8926 5.47656C24.6406 5.35938 24.3418 5.30078 23.9961 5.30078C23.6621 5.30078 23.3721 5.37695 23.126 5.5293C22.8857 5.67578 22.6836 5.87793 22.5195 6.13574C22.3613 6.39355 22.2412 6.69824 22.1592 7.0498C22.0771 7.39551 22.0361 7.77051 22.0361 8.1748Z" fill="black"/>
<path d="M29.7617 8.3418V8.15723C29.7617 7.45996 29.8613 6.81836 30.0605 6.23242C30.2598 5.64062 30.5498 5.12793 30.9307 4.69434C31.3115 4.26074 31.7803 3.92383 32.3369 3.68359C32.8936 3.4375 33.5322 3.31445 34.2529 3.31445C34.9736 3.31445 35.6152 3.4375 36.1777 3.68359C36.7402 3.92383 37.2119 4.26074 37.5928 4.69434C37.9795 5.12793 38.2725 5.64062 38.4717 6.23242C38.6709 6.81836 38.7705 7.45996 38.7705 8.15723V8.3418C38.7705 9.0332 38.6709 9.6748 38.4717 10.2666C38.2725 10.8525 37.9795 11.3652 37.5928 11.8047C37.2119 12.2383 36.7432 12.5752 36.1865 12.8154C35.6299 13.0557 34.9912 13.1758 34.2705 13.1758C33.5498 13.1758 32.9082 13.0557 32.3457 12.8154C31.7891 12.5752 31.3174 12.2383 30.9307 11.8047C30.5498 11.3652 30.2598 10.8525 30.0605 10.2666C29.8613 9.6748 29.7617 9.0332 29.7617 8.3418ZM32.293 8.15723V8.3418C32.293 8.74023 32.3281 9.1123 32.3984 9.45801C32.4688 9.80371 32.5801 10.1084 32.7324 10.3721C32.8906 10.6299 33.0957 10.832 33.3477 10.9785C33.5996 11.125 33.9072 11.1982 34.2705 11.1982C34.6221 11.1982 34.9238 11.125 35.1758 10.9785C35.4277 10.832 35.6299 10.6299 35.7822 10.3721C35.9346 10.1084 36.0459 9.80371 36.1162 9.45801C36.1924 9.1123 36.2305 8.74023 36.2305 8.3418V8.15723C36.2305 7.77051 36.1924 7.40723 36.1162 7.06738C36.0459 6.72168 35.9316 6.41699 35.7734 6.15332C35.6211 5.88379 35.4189 5.67285 35.167 5.52051C34.915 5.36816 34.6104 5.29199 34.2529 5.29199C33.8955 5.29199 33.5908 5.36816 33.3389 5.52051C33.0928 5.67285 32.8906 5.88379 32.7324 6.15332C32.5801 6.41699 32.4688 6.72168 32.3984 7.06738C32.3281 7.40723 32.293 7.77051 32.293 8.15723Z" fill="black"/>
</svg>
